<svg id="Capa_1" enable-background="new 0 0 512 512" height="512" viewBox="0 0 512 512" width="512" xmlns="http://www.w3.org/2000/svg"><g><path d="m356 340h-45v-15.594c28.646-17.687 48.198-48.746 49.878-84.406h5.122c24.813 0 45-20.187 45-45v-40c0-85.468-69.533-155-155-155-35.241 0-69.727 12.165-97.104 34.253-25.327 20.435-43.729 48.591-52.286 79.801-4.093 3.146-7.627 7.039-10.374 11.543-14.173 3.368-25.821 13.807-30.459 28.079-4.637 14.272-1.349 29.562 8.137 40.618-1.176 14.521 5.152 28.823 17.293 37.645.239.174.488.327.73.495-5.475 22.325-13.311 43.774-23.373 63.899-4.949 9.893-7.564 20.971-7.564 32.035 0 16.234 5.372 31.563 15.118 43.988-21.64 20.924-35.118 50.238-35.118 82.644v42c0 8.284 6.716 15 15 15h400c8.284 0 15-6.716 15-15v-42c0-63.411-51.589-115-115-115zm-25-105c0 41.355-33.645 75-75 75s-75-33.645-75-75v-10.063c7.164-8.506 10.691-19.505 9.788-30.643 9.485-11.055 12.774-26.347 8.138-40.618 0 0 0-.001 0-.002-1.116-3.433-2.646-6.637-4.51-9.581 5.757-9.624 13.172-18.143 21.829-25.102 14.763 32.728 59.229 56.812 114.755 60.514zm35-25h-5v-30h5c8.271 0 15 6.729 15 15s-6.729 15-15 15zm-110-180c68.112 0 123.669 54.763 124.969 122.57-4.686-1.658-9.722-2.57-14.969-2.57h-20c-29.438 0-56.889-6.556-77.295-18.459-10.347-6.036-27.705-18.81-27.705-36.541 0-5.198-2.691-10.026-7.114-12.76-4.422-2.733-9.945-2.982-14.594-.656-20.021 10.01-37.025 25.525-49.026 44.501-.597-.17-1.192-.344-1.799-.489-6.097-10.001-16.04-17.027-27.501-19.4 19.211-45.755 63.894-76.196 115.034-76.196zm-161.691 132.946c1.656-5.097 6.433-8.513 11.896-8.513h.085c6.513 0 12.284-4.204 14.279-10.407 1.678-5.216 6.413-8.72 11.783-8.72s10.105 3.504 11.783 8.72c1.995 6.203 7.766 10.407 14.279 10.407.029.001.058 0 .085 0 5.461 0 10.238 3.416 11.896 8.512 1.659 5.108-.211 10.694-4.652 13.901-5.297 3.823-7.51 10.635-5.473 16.841 1.709 5.205-.062 10.823-4.406 13.979-4.345 3.157-10.233 3.105-14.657-.129-2.637-1.928-5.746-2.892-8.854-2.892s-6.218.964-8.854 2.892c-4.423 3.235-10.313 3.286-14.657.129-4.345-3.156-6.116-8.774-4.407-13.98 2.037-6.206-.176-13.017-5.472-16.84-4.444-3.205-6.314-8.792-4.654-13.9zm56.691 319.054h-80v-27c0-45.19 35.451-82.242 80-84.841zm-50.76-127.546c-5.947-7.319-9.24-16.429-9.24-26.086 0-6.43 1.52-12.867 4.396-18.617 11.043-22.087 19.641-45.598 25.646-70.048 3.851-.46 7.658-1.432 11.309-2.953 5.229 2.181 10.777 3.271 16.32 3.271.816 0 1.633-.032 2.448-.079 1.662 35.684 21.218 66.767 49.88 84.464v15.594h-45c-20.219 0-39.232 5.252-55.759 14.454zm270.76 127.546h-190v-32h165c13.785 0 25 11.215 25 25zm70 0h-40v-7c0-30.327-24.673-55-55-55h-165v-50h35c8.284 0 15-6.716 15-15v-18.015c8.016 1.965 16.387 3.015 25 3.015s16.984-1.05 25-3.015v18.015c0 8.284 6.716 15 15 15h60c46.869 0 85 38.131 85 85z"/></g></svg>